<?xml version="1.0" encoding="UTF-8"?>
<svg id="SVGDoc" width="177" height="281" xmlns="http://www.w3.org/2000/svg" version="1.1" xmlns:xlink="http://www.w3.org/1999/xlink" xmlns:avocode="https://avocode.com/" viewBox="0 0 177 281"><defs><clipPath id="ClipPath1016"><path d="M37.75751,0.48506v0c0,0 -18.04024,117.33444 32.92454,170.77127c0.4248,0.49567 54.14577,54.13957 93.32577,30.65489c1.9067,-0.7846 31.9685,-25.88085 -12.80251,-51.03424c-0.4248,-0.49599 -61.16993,-28.2401 -120.29629,70.24728c-0.06924,0.92168 -24.7966,47.28235 -29.37069,58.99387" fill="#ffffff"></path></clipPath></defs><desc>Generated with Avocode.</desc><g><g><title>Shape 1</title><path d="M37.75751,0.48506v0c0,0 -18.04024,117.33444 32.92454,170.77127c0.4248,0.49567 54.14577,54.13957 93.32577,30.65489c1.9067,-0.7846 31.9685,-25.88085 -12.80251,-51.03424c-0.4248,-0.49599 -61.16993,-28.2401 -120.29629,70.24728c-0.06924,0.92168 -24.7966,47.28235 -29.37069,58.99387" fill-opacity="0" fill="#ffffff" stroke-dashoffset="0" stroke-dasharray="" stroke-linejoin="miter" stroke-linecap="butt" stroke-opacity="1" stroke="#47dbc8" stroke-miterlimit="20" stroke-width="4" clip-path="url(&quot;#ClipPath1016&quot;)"></path></g></g></svg>