<svg width="177" height="281" xmlns="http://www.w3.org/2000/svg"><defs><clipPath id="a"><path d="M37.758.485S19.718 117.82 70.682 171.256c.425.496 54.146 54.14 93.326 30.655 1.907-.784 31.968-25.88-12.803-51.034-.424-.496-61.17-28.24-120.296 70.247-.07.922-24.797 47.283-29.37 58.994" fill="#fff"/></clipPath></defs><path d="M37.758.485v0S19.718 117.82 70.682 171.256c.425.496 54.146 54.14 93.326 30.655 1.907-.784 31.968-25.88-12.803-51.034-.424-.496-61.17-28.24-120.296 70.247-.07.922-24.797 47.283-29.37 58.994" fill="none" stroke="#47dbc8" stroke-miterlimit="20" stroke-width="4" clip-path="url(&quot;#a&quot;)"/></svg>